<svg xmlns="http://www.w3.org/2000/svg" viewBox="0 0 760 390" font-family="'SF Mono','Fira Code','Courier New',monospace">
  <defs>
    <linearGradient id="card-bg" x1="0" y1="0" x2="0" y2="1">
      <stop offset="0%" stop-color="#101820"/>
      <stop offset="100%" stop-color="#0a0f14"/>
    </linearGradient>
    <linearGradient id="card-panel" x1="0" y1="0" x2="1" y2="1">
      <stop offset="0%" stop-color="#1b3a2a"/>
      <stop offset="100%" stop-color="#1a2630"/>
    </linearGradient>
    <linearGradient id="card-accent" x1="0" y1="0" x2="1" y2="0">
      <stop offset="0%" stop-color="#4cc46f"/>
      <stop offset="50%" stop-color="#f3f6f8"/>
      <stop offset="100%" stop-color="#3ea6d1"/>
    </linearGradient>
  </defs>
  <rect x="8" y="8" width="744" height="374" rx="20" fill="url(#card-bg)" stroke="#2c4a5e" stroke-width="3"/>
  <rect x="22" y="22" width="716" height="92" rx="14" fill="url(#card-panel)" stroke="#31556b" stroke-width="2"/>
  <text x="380" y="68" text-anchor="middle" fill="url(#card-accent)" font-size="40" font-weight="700" letter-spacing="1.8" font-family="'Cinzel','Copperplate','Times New Roman',serif">CHAMPIONS</text>
  <text x="380" y="96" text-anchor="middle" fill="#c7d8e3" font-size="21" letter-spacing="0.8">Most Wins</text>
  <rect x="24" y="128" width="712" height="44" rx="9" fill="#0f1820" stroke="#25485f" stroke-width="1"/>
  <text x="42" y="158" fill="#9fd8f1" font-size="24" font-weight="700">1</text>
  <text x="88" y="158" fill="#e6eef3" font-size="22">No data yet</text>
  <text x="716" y="158" text-anchor="end" fill="#e6eef3" font-size="22" font-weight="700">--</text>
  <rect x="24" y="176" width="712" height="44" rx="9" fill="#0d141b" stroke="#25485f" stroke-width="1"/>
  <text x="42" y="206" fill="#9fd8f1" font-size="24" font-weight="700">2</text>
  <text x="88" y="206" fill="#e6eef3" font-size="22">--</text>
  <text x="716" y="206" text-anchor="end" fill="#e6eef3" font-size="22" font-weight="700">--</text>
  <rect x="24" y="224" width="712" height="44" rx="9" fill="#0f1820" stroke="#25485f" stroke-width="1"/>
  <text x="42" y="254" fill="#9fd8f1" font-size="24" font-weight="700">3</text>
  <text x="88" y="254" fill="#e6eef3" font-size="22">--</text>
  <text x="716" y="254" text-anchor="end" fill="#e6eef3" font-size="22" font-weight="700">--</text>
  <rect x="24" y="272" width="712" height="44" rx="9" fill="#0d141b" stroke="#25485f" stroke-width="1"/>
  <text x="42" y="302" fill="#9fd8f1" font-size="24" font-weight="700">4</text>
  <text x="88" y="302" fill="#e6eef3" font-size="22">--</text>
  <text x="716" y="302" text-anchor="end" fill="#e6eef3" font-size="22" font-weight="700">--</text>
  <rect x="24" y="320" width="712" height="44" rx="9" fill="#0f1820" stroke="#25485f" stroke-width="1"/>
  <text x="42" y="350" fill="#9fd8f1" font-size="24" font-weight="700">5</text>
  <text x="88" y="350" fill="#e6eef3" font-size="22">--</text>
  <text x="716" y="350" text-anchor="end" fill="#e6eef3" font-size="22" font-weight="700">--</text>
</svg>